<svg xmlns="http://www.w3.org/2000/svg" viewBox="0 0 1024 1024" fill="#359CCF">
  <path
    d="M364 404c34.4 0 67.8 6.7 99.2 20 30.4 12.8 57.6 31.2 81.1 54.7 23.4 23.4 41.8 50.7 54.7 81.1 13.3 31.4 20 64.8 20 99.2s-6.7 67.8-20 99.2c-12.8 30.4-31.2 57.6-54.7 81.1-23.4 23.4-50.7 41.8-81.1 54.7-31.4 13.3-64.8 20-99.2 20s-67.8-6.7-99.2-20c-30.4-12.8-57.6-31.2-81.1-54.7-23.4-23.4-41.8-50.7-54.7-81.1-13.3-31.4-20-64.8-20-99.2s6.7-67.8 20-99.2c12.8-30.4 31.2-57.6 54.7-81.1 23.4-23.4 50.7-41.8 81.1-54.7 31.4-13.3 64.8-20 99.2-20m0-45C198.3 359 64 493.3 64 659s134.3 300 300 300 300-134.3 300-300-134.3-300-300-300z" />
  <path
    d="M571.5 477c-5.8 0-11.5-2.2-15.9-6.6-8.8-8.8-8.8-23 0-31.8l333.8-334c8.8-8.8 23-8.8 31.8 0s8.8 23 0 31.8l-333.8 334c-4.4 4.4-10.1 6.6-15.9 6.6z" />
  <path
    d="M905.3 466.5c-12.4 0-22.5-10.1-22.5-22.5V120.5c0-12.4 10.1-22.5 22.5-22.5s22.5 10.1 22.5 22.5V444c0 12.4-10.1 22.5-22.5 22.5z" />
  <path
    d="M905.3 143h-323c-12.4 0-22.5-10.1-22.5-22.5S569.9 98 582.3 98h322.9c12.4 0 22.5 10.1 22.5 22.5s-10 22.5-22.4 22.5z" />
</svg>
