<?xml version="1.0" standalone="no"?><!DOCTYPE svg PUBLIC "-//W3C//DTD SVG 1.1//EN" "http://www.w3.org/Graphics/SVG/1.1/DTD/svg11.dtd"><svg class="icon" width="19px" height="19.00px" viewBox="0 0 1024 1024" version="1.1" xmlns="http://www.w3.org/2000/svg"><path fill="#d81e06" d="M896 128 128 128c-35.346 0-64 28.654-64 64l0 512c0 35.347 28.654 64 64 64l320 0 0 64L288 832c-17.673 0-32 14.327-32 32s14.327 32 32 32l448 0c17.673 0 32-14.327 32-32s-14.327-32-32-32L576 832l0-64 320 0c35.346 0 64-28.653 64-64L960 192C960 156.654 931.346 128 896 128zM896 672c0 17.673-14.327 32-32 32L160 704c-17.673 0-32-14.327-32-32L128 224c0-17.673 14.327-32 32-32l704 0c17.673 0 32 14.327 32 32L896 672z" /></svg>