<?xml version="1.0" standalone="no"?><!DOCTYPE svg PUBLIC "-//W3C//DTD SVG 1.1//EN" "http://www.w3.org/Graphics/SVG/1.1/DTD/svg11.dtd"><svg class="icon" width="19px" height="19.00px" viewBox="0 0 1024 1024" version="1.1" xmlns="http://www.w3.org/2000/svg"><path fill="#d81e06" d="M426.677333 85.002667c-23.573333 0-42.666667 19.082667-42.666666 42.666666V323.306667L115.701333 55.125333a42.933333 42.933333 0 0 0-60.544 0 42.912 42.912 0 0 0 0 60.544l268.170667 268.32h-195.626667c-23.584 0-42.666667 19.093333-42.666666 42.666667s19.082667 42.666667 42.666666 42.666667h298.666667c23.562667 0 42.976-19.413333 42.976-42.976V127.669333c0-23.584-19.093333-42.666667-42.666667-42.666666z m542.165334 823.317333L700.672 639.989333H896.32a42.666667 42.666667 0 0 0 0-85.333333H597.621333c-23.584 0-42.944 19.424-42.944 43.008v298.666667c0 23.573333 19.093333 42.666667 42.666667 42.666666s42.666667-19.093333 42.666667-42.666666V700.682667l268.32 268.181333a42.88 42.88 0 0 0 60.512 0 42.912 42.912 0 0 0 0-60.544z" /></svg>