<svg viewBox="0 0 1024 1024" fill="currentColor" xmlns="http://www.w3.org/2000/svg"><path d="M426.677 85.003c-23.573 0-42.666 19.082-42.666 42.666v195.638L115.7 55.125a42.933 42.933 0 0 0-60.544 0 42.912 42.912 0 0 0 0 60.544l268.171 268.32H127.701c-23.584 0-42.666 19.094-42.666 42.667s19.082 42.667 42.666 42.667h298.667c23.563 0 42.976-19.414 42.976-42.976V127.669c0-23.584-19.093-42.666-42.667-42.666zM968.843 908.32L700.672 639.99H896.32a42.667 42.667 0 0 0 0-85.334H597.621c-23.584 0-42.944 19.424-42.944 43.008v298.667c0 23.573 19.094 42.666 42.667 42.666s42.667-19.093 42.667-42.666V700.683l268.32 268.181a42.88 42.88 0 0 0 60.512 0 42.912 42.912 0 0 0 0-60.544z"/></svg>
