<?xml version="1.0" standalone="no"?><!DOCTYPE svg PUBLIC "-//W3C//DTD SVG 1.1//EN" "http://www.w3.org/Graphics/SVG/1.1/DTD/svg11.dtd"><svg class="icon" width="19px" height="19.00px" viewBox="0 0 1024 1024" version="1.1" xmlns="http://www.w3.org/2000/svg"><path fill="#d81e06" d="M511.34 862a30 30 0 0 1-18-6L246 670.21H98a30 30 0 0 1-30-30V384a30 30 0 0 1 30-30h148.31l247-186a30 30 0 0 1 48 24v640a30 30 0 0 1-30 30zM128 610.21h128.05a30 30 0 0 1 18 6l207.28 155.7V252.18L274.39 408a30 30 0 0 1-18.05 6H128zM928 734.12a29.93 29.93 0 0 1-24-12L616.12 337.87a30 30 0 0 1 48-36L952 686.12a30 30 0 0 1-24 48z"  /><path fill="#d81e06" d="M640.1 734.12a30 30 0 0 1-24-48L904 301.9a30 30 0 1 1 48 36L664.13 722.1a29.93 29.93 0 0 1-24.03 12.02z"  /></svg>