<svg viewBox="0 0 1024 1024" fill="currentColor" xmlns="http://www.w3.org/2000/svg"><path d="M511.34 862a30 30 0 0 1-18-6L246 670.21H98a30 30 0 0 1-30-30V384a30 30 0 0 1 30-30h148.31l247-186a30 30 0 0 1 48 24v640a30 30 0 0 1-30 30zM128 610.21h128.05a30 30 0 0 1 18 6l207.28 155.7V252.18L274.39 408a30 30 0 0 1-18.05 6H128zm800 123.91a29.93 29.93 0 0 1-24-12L616.12 337.87a30 30 0 0 1 48-36L952 686.12a30 30 0 0 1-24 48z"/><path d="M640.1 734.12a30 30 0 0 1-24-48L904 301.9a30 30 0 1 1 48 36L664.13 722.1a29.93 29.93 0 0 1-24.03 12.02z"/></svg>
