<svg xmlns="http://www.w3.org/2000/svg" viewBox="0 0 1024 1024" fill="#E54786">
  <path d="M583.423 98.169c-189.286 0-343.274 153.988-343.274 343.274 0 87.447 32.883 167.344 86.911 228.021l-74.885 74.885-100.31-100.305c-7.827-7.827-20.506-7.827-28.332 0-7.827 7.827-7.827 20.506 0 28.332l100.31 100.305-121.246 121.246c-7.827 7.827-7.827 20.506 0 28.332a19.972 19.972 0 0 0 14.166 5.87 19.972 19.972 0 0 0 14.166-5.87l121.246-121.246 100.324 100.32a19.972 19.972 0 0 0 14.166 5.87 19.972 19.972 0 0 0 14.166-5.87c7.827-7.827 7.827-20.506 0-28.332l-100.324-100.32 74.884-74.884c60.678 54.033 140.579 86.92 228.031 86.92 189.286 0 343.274-153.988 343.274-343.274S772.709 98.169 583.423 98.169z m0 646.475c-167.176 0-303.202-136.016-303.202-303.202S416.247 138.24 583.423 138.24s303.202 136.016 303.202 303.202-136.027 303.202-303.202 303.202z" />
</svg>
